<?xml version="1.0" standalone="no"?>
<!DOCTYPE svg PUBLIC "-//W3C//DTD SVG 20010904//EN"
 "http://www.w3.org/TR/2001/REC-SVG-20010904/DTD/svg10.dtd">
<svg version="1.0" xmlns="http://www.w3.org/2000/svg"
 width="2000.000000pt" height="1333.000000pt" viewBox="0 0 2000.000000 1333.000000"
 preserveAspectRatio="xMidYMid meet">

<g transform="translate(0.000000,1333.000000) scale(0.100000,-0.100000)"
fill="#000000" stroke="none">
<path d="M7735 10384 c-83 -43 -167 -175 -186 -293 -13 -85 -28 -111 -96 -168
-179 -150 -222 -210 -231 -319 -4 -52 0 -71 21 -118 14 -31 30 -56 34 -56 5 0
19 33 32 73 34 106 99 233 135 264 41 34 86 52 166 67 61 11 66 14 84 49 12
25 19 65 21 117 2 43 5 83 9 88 3 5 23 10 45 10 44 1 94 20 163 62 27 17 50
30 52 30 2 0 9 -14 16 -31 20 -47 15 -139 -9 -195 -29 -64 -48 -84 -83 -84
-24 0 -28 -4 -28 -29 0 -25 5 -30 35 -35 54 -10 127 -44 157 -73 l26 -25 13
23 c7 13 15 62 17 109 10 203 -90 497 -183 536 -47 19 -171 18 -210 -2z"/>
<path d="M8138 9388 c-19 -46 -63 -154 -98 -240 l-63 -158 -109 0 c-89 0 -108
-3 -108 -15 0 -13 54 -15 423 -15 232 0 431 3 442 6 15 4 41 59 112 237 51
128 95 240 99 250 6 16 -14 17 -329 17 l-335 0 -34 -82z m332 -163 c0 -25 -32
-51 -50 -40 -14 8 -12 39 2 53 21 21 48 14 48 -13z"/>
<path d="M7628 9158 c5 -5 16 -8 23 -6 8 3 3 7 -10 11 -17 4 -21 3 -13 -5z"/>
<path d="M9100 8201 c0 -2 29 -60 65 -128 36 -68 64 -127 61 -132 -13 -20 130
-121 171 -121 13 0 23 -4 23 -9 0 -19 -68 -36 -145 -35 -108 1 -135 9 -135 37
-1 41 -34 84 -122 161 -48 42 -123 110 -167 151 l-81 75 -107 0 -108 0 -69
-188 c-37 -103 -75 -192 -82 -198 -20 -16 -54 -144 -61 -225 -4 -49 -2 -73 11
-97 20 -40 11 -40 -41 -3 -46 34 -76 71 -121 152 l-31 57 29 12 c38 16 54 36
73 92 10 32 12 48 5 50 -10 4 5 166 29 311 l6 37 -1062 0 c-652 0 -1061 -4
-1061 -9 0 -13 6 -38 325 -1306 152 -605 339 -1347 415 -1650 101 -400 142
-550 152 -549 8 1 56 4 107 8 l93 8 -200 -229 c-109 -125 -205 -227 -211 -225
-7 1 -10 -2 -6 -8 4 -6 1 -18 -7 -27 -11 -14 -10 -16 12 -10 14 3 81 14 148
24 l124 17 41 71 c41 69 42 69 47 39 6 -38 21 -35 74 14 l36 33 10 -26 c13
-33 13 -71 0 -94 -5 -10 -41 -40 -79 -66 -81 -55 -78 -26 -21 -254 l36 -146
3757 -3 3757 -2 -6 27 c-4 16 -35 129 -69 253 -34 124 -68 249 -76 278 l-13
52 -773 0 c-555 0 -787 3 -820 12 -32 8 -61 25 -93 57 -54 52 -49 38 -130 398
-55 243 -58 281 -33 324 36 61 7 59 848 59 748 0 766 0 760 19 -3 10 -39 142
-81 292 -41 151 -79 289 -85 307 l-11 32 -1036 0 c-1030 0 -1036 0 -1079 21
-53 26 -100 81 -114 134 -6 22 -94 339 -195 705 -328 1181 -317 1136 -304
1176 7 21 25 43 44 55 30 18 63 19 1069 19 570 0 1037 2 1037 4 0 1 -4 16 -9
32 -5 16 -16 54 -25 84 l-15 55 -2241 0 c-1232 0 -2240 -2 -2240 -4z m-2507
-123 c48 -25 63 -79 28 -98 -31 -16 -48 -12 -82 18 -26 23 -31 34 -26 55 6 22
19 31 50 36 5 0 18 -4 30 -11z m280 -19 c23 -29 22 -66 -3 -79 -59 -31 -148
66 -92 100 24 15 74 4 95 -21z m243 6 c17 -17 24 -34 22 -53 -3 -24 -8 -27
-44 -30 -35 -3 -45 1 -63 24 -11 15 -21 34 -21 43 0 46 66 56 106 16z m4185
-535 c20 -6 43 -18 52 -28 16 -17 217 -819 217 -863 0 -10 -13 -25 -30 -34
-25 -13 -155 -15 -1060 -15 -1119 0 -1081 -2 -1108 53 -6 12 -27 87 -46 167
-19 80 -62 259 -96 398 -34 139 -60 265 -58 280 2 16 12 31 28 39 32 16 2044
19 2101 3z m-3333 -296 c5 -26 143 -165 156 -157 6 3 7 2 3 -2 -4 -5 25 -42
65 -82 68 -69 73 -72 90 -56 18 16 21 14 65 -29 38 -38 44 -49 34 -61 -10 -13
4 -23 85 -67 158 -84 248 -147 408 -286 21 -19 42 -31 47 -28 5 3 8 0 7 -8 -2
-7 4 -12 12 -10 8 2 12 0 8 -4 -10 -9 12 -35 23 -28 5 3 8 1 7 -4 -2 -5 34
-54 80 -108 46 -54 137 -179 203 -277 66 -97 124 -175 130 -172 5 3 7 0 4 -7
-7 -18 101 -129 168 -172 31 -20 78 -45 106 -56 51 -20 51 -20 51 0 0 22 29
26 103 14 32 -6 37 -10 37 -34 0 -32 24 -40 126 -40 193 0 279 60 414 290 56
97 92 144 156 208 56 55 91 99 105 133 20 46 24 49 49 44 26 -6 29 -2 65 72
20 43 40 101 44 128 5 45 9 50 33 53 34 4 54 -27 38 -58 -6 -11 -16 -20 -23
-20 -7 0 -32 -43 -56 -96 -49 -111 -46 -124 21 -104 24 6 124 14 224 17 l180
5 47 -183 c45 -176 132 -511 340 -1309 53 -201 114 -439 137 -530 22 -91 43
-173 46 -183 5 -16 -90 -17 -1927 -15 l-1932 3 -27 125 c-119 541 -160 742
-153 754 4 8 22 29 38 48 17 18 86 98 154 178 136 160 137 161 274 275 94 78
97 81 97 122 0 57 33 141 85 219 41 61 42 65 24 75 -22 11 -12 21 -153 -141
-43 -50 -55 -70 -51 -87 5 -23 -24 -63 -46 -63 -26 0 -49 22 -49 48 0 35 16
52 50 52 19 0 43 21 105 92 108 123 109 126 95 143 -12 14 -53 17 -44 3 8 -12
-73 -80 -129 -110 -29 -15 -73 -32 -99 -38 -46 -12 -47 -13 -122 -139 -76
-127 -84 -143 -67 -139 5 2 45 -28 90 -66 64 -55 78 -72 70 -83 -9 -10 -15
-10 -25 -2 -8 6 -12 14 -10 18 3 4 1 13 -3 20 -6 10 -10 9 -14 -3 -4 -10 2
-25 13 -36 11 -11 16 -20 12 -20 -5 0 -17 10 -28 23 -11 12 -35 34 -54 49 -19
15 -31 30 -27 35 5 4 11 3 15 -2 4 -6 16 -17 27 -25 18 -14 19 -14 7 2 -7 9
-9 18 -5 20 4 3 2 3 -6 1 -8 -2 -11 2 -8 11 5 12 1 13 -20 5 -25 -9 -45 -1
-64 25 -7 9 -46 -31 -145 -148 l-59 -69 -14 64 c-15 67 -129 523 -337 1347
-68 271 -124 496 -124 499 0 9 181 -5 335 -28 146 -21 290 -52 437 -95 48 -14
93 -22 99 -18 7 4 9 3 5 -4 -5 -9 80 -46 109 -47 6 0 13 -4 17 -10 4 -5 11 -6
15 -1 9 9 -235 249 -246 241 -5 -2 -8 3 -7 12 0 9 -5 18 -13 21 -9 3 -11 0 -6
-8 5 -9 4 -11 -4 -6 -6 4 -9 11 -6 16 3 5 -10 16 -30 24 -27 12 -35 21 -35 40
0 50 69 50 78 0z m-328 -2453 c21 -40 12 -69 -32 -101 -22 -16 -44 -30 -48
-30 -11 0 14 116 29 134 18 21 38 20 51 -3z"/>
<path d="M10413 7206 c3 -7 16 -59 28 -115 l23 -101 53 0 c34 0 55 -5 58 -12
2 -7 9 -32 15 -55 l11 -43 116 0 c115 0 115 0 109 23 -3 12 -15 64 -27 115
l-21 92 -54 0 -53 0 -11 43 c-6 23 -13 48 -15 55 -3 9 -37 12 -121 12 -94 0
-115 -3 -111 -14z m222 -38 c9 -45 4 -53 -30 -54 -63 -3 -67 -4 -62 -18 3 -8
9 -31 13 -50 l6 -36 -40 0 -40 0 -21 85 c-11 46 -21 89 -21 95 0 6 36 10 95
10 l94 0 6 -32z m134 -115 c5 -21 16 -64 24 -95 l15 -58 -99 0 c-98 0 -99 0
-101 25 -4 63 -6 60 46 57 l49 -3 -6 29 c-3 17 -9 41 -13 56 -6 25 -4 26 35
26 38 0 41 -2 50 -37z"/>
<path d="M9420 7203 c1 -13 48 -194 52 -198 2 -2 26 -5 53 -7 l50 -3 14 -53
14 -52 107 0 107 0 -25 105 -26 104 -55 3 -55 3 -11 50 -10 50 -108 3 c-59 1
-107 -1 -107 -5z"/>
<path d="M9924 7193 c7 -23 46 -185 46 -189 0 -2 22 -4 49 -4 l49 0 14 -57 14
-58 118 -3 c115 -3 118 -2 113 18 -3 11 -15 63 -28 115 l-23 94 -60 3 -61 3
-9 48 -9 47 -109 0 c-99 0 -109 -2 -104 -17z m342 -130 c3 -16 12 -53 20 -84
8 -31 14 -62 14 -68 0 -7 -32 -11 -93 -11 l-93 0 -17 73 c-10 39 -20 82 -23
95 -6 22 -5 22 90 22 l96 0 6 -27z"/>
<path d="M10930 7198 c0 -7 10 -55 22 -105 l22 -93 53 0 c34 0 55 -5 58 -12 2
-7 9 -32 15 -55 l11 -43 105 0 105 0 -7 35 c-3 20 -14 66 -23 103 l-17 67 -55
5 -54 5 -14 53 -14 52 -103 0 c-77 0 -104 -3 -104 -12z m239 -144 c6 -24 11
-45 11 -48 0 -9 -88 -7 -94 2 -3 5 -8 28 -12 51 l-7 41 46 -1 c45 -2 46 -3 56
-45z"/>
<path d="M7945 5410 c3 -5 1 -10 -4 -10 -6 0 -11 -5 -11 -11 0 -8 4 -9 13 0 8
6 18 7 23 3 4 -4 2 1 -5 11 -14 18 -26 24 -16 7z"/>
<path d="M8016 5345 c4 -8 11 -15 16 -15 6 0 5 6 -2 15 -7 8 -14 15 -16 15 -2
0 -1 -7 2 -15z"/>
<path d="M4730 7790 c-362 -5 -398 -7 -424 -23 -29 -19 -56 -71 -56 -107 0
-16 51 -262 85 -407 l5 -23 550 0 c303 0 550 2 550 5 0 25 -92 410 -103 432
-34 66 -99 112 -172 122 -22 3 -218 4 -435 1z m-163 -237 l97 -78 -50 -3 c-44
-3 -53 -7 -68 -32 -9 -17 -20 -30 -25 -30 -4 0 -17 43 -30 96 -12 53 -25 102
-28 110 -9 25 6 16 104 -63z m500 0 l95 -78 -51 -3 c-45 -3 -52 -6 -73 -39
l-22 -37 -27 110 c-31 122 -31 124 -23 124 3 0 48 -35 101 -77z"/>
<path d="M12817 7641 c9 -34 20 -61 25 -61 6 0 7 11 4 25 -4 17 -2 25 7 25 7
0 24 -11 37 -25 13 -14 28 -25 34 -25 6 0 1 10 -11 21 -18 18 -19 25 -10 40
19 31 -3 54 -56 57 l-45 3 15 -60z m62 40 c21 -14 5 -43 -21 -39 -29 4 -39 48
-11 48 10 0 24 -4 32 -9z"/>
<path d="M12872 7458 c-34 -34 12 -111 67 -111 39 0 52 12 45 41 -5 16 -14 22
-33 21 l-26 0 23 -10 c28 -11 24 -33 -6 -37 -27 -4 -64 33 -60 61 2 17 10 22
33 24 49 2 51 3 35 13 -21 13 -64 12 -78 -2z"/>
<path d="M12227 7392 c-22 -3 -27 -7 -22 -20 3 -9 9 -29 12 -44 5 -27 4 -28
-35 -28 l-40 0 9 -37 c6 -21 12 -44 15 -52 3 -8 32 23 74 80 38 52 69 96 70
99 0 6 -43 7 -83 2z"/>
<path d="M12318 7343 c-9 -16 -39 -59 -67 -96 -28 -37 -51 -70 -51 -72 0 -3
45 -5 101 -5 76 0 100 3 96 13 -3 6 -15 51 -28 100 -13 48 -26 87 -29 87 -3 0
-13 -12 -22 -27z"/>
<path d="M4361 7138 c10 -46 39 -179 65 -295 l47 -213 548 0 c516 0 549 1 548
18 0 9 -28 141 -62 292 l-62 275 -551 3 -552 2 19 -82z m915 -101 c3 -8 -25
-60 -61 -117 -78 -123 -71 -116 -89 -101 -12 10 -7 23 33 84 26 40 57 89 70
110 24 39 38 46 47 24z m-512 -33 c10 -26 7 -34 -14 -34 -11 0 -20 5 -20 10 0
6 -12 10 -26 10 -19 0 -24 -4 -20 -17 3 -10 8 -35 12 -56 3 -21 15 -47 26 -57
26 -24 15 -40 -28 -40 -36 0 -58 25 -35 40 10 6 10 20 0 69 -10 54 -14 61 -35
61 -13 0 -24 -4 -24 -10 0 -5 -8 -10 -19 -10 -12 0 -20 9 -23 25 l-5 25 102 0
c85 0 104 -3 109 -16z"/>
<path d="M12945 7184 c13 -74 21 -84 65 -84 45 0 61 19 39 46 -7 9 -13 25 -14
36 -2 26 -22 38 -64 38 -33 0 -33 0 -26 -36z m73 -1 c2 -9 -7 -13 -27 -13 -21
0 -31 5 -31 16 0 19 51 16 58 -3z m17 -53 c0 -9 -11 -16 -26 -18 -20 -2 -28 2
-32 18 -5 19 -2 21 26 18 20 -2 32 -8 32 -18z"/>
<path d="M14115 7210 l-930 -5 3 -25 c6 -58 -51 -55 971 -57 1014 -2 981 -4
967 50 -6 24 -31 40 -66 41 -8 1 -433 -1 -945 -4z"/>
<path d="M14149 6893 c-1 -5 0 -16 1 -27 1 -12 -3 -16 -12 -11 -7 3 -6 0 3 -7
20 -16 52 -124 46 -150 -3 -10 -1 -16 3 -13 5 3 16 -26 26 -65 l18 -70 141 -1
c77 0 235 -3 352 -5 116 -2 214 -1 216 3 2 5 -17 85 -43 178 l-46 170 -352 3
c-194 1 -353 -1 -353 -5z"/>
<path d="M13821 6804 c0 -11 3 -14 6 -6 3 7 2 16 -1 19 -3 4 -6 -2 -5 -13z"/>
<path d="M4480 6613 c0 -5 28 -135 62 -290 l62 -283 551 0 551 0 -43 193 c-23
105 -53 236 -64 290 l-22 97 -549 0 c-301 0 -548 -3 -548 -7z m346 -139 c35
-24 56 -63 58 -109 1 -39 6 -47 64 -95 34 -29 62 -57 62 -62 0 -19 -28 -5 -84
42 -56 46 -61 48 -106 43 -80 -9 -150 48 -150 124 0 46 51 87 98 78 19 -4 45
-13 58 -21z m499 -24 c18 -39 19 -40 69 -40 l51 -1 -34 -29 -34 -29 27 -45
c15 -25 24 -46 21 -46 -3 0 -23 11 -43 25 -20 14 -40 25 -44 25 -3 0 -21 -12
-38 -27 l-32 -26 3 47 c3 45 2 48 -41 76 l-45 30 46 0 c49 0 59 11 59 68 0 31
13 21 35 -28z"/>
<path d="M4716 6441 c-37 -41 12 -121 75 -121 60 0 80 67 33 114 -33 32 -83
35 -108 7z"/>
<path d="M13973 6553 c48 -2 125 -2 170 0 45 1 6 3 -88 3 -93 0 -130 -2 -82
-3z"/>
<path d="M12830 6537 c0 -6 21 -86 47 -179 l46 -168 354 0 353 0 -6 28 c-4 15
-26 95 -49 177 l-42 150 -351 1 c-240 1 -352 -2 -352 -9z"/>
<path d="M16454 6361 c-44 -20 -84 -63 -84 -91 0 -14 -8 -16 -47 -13 -72 7
-130 -36 -210 -156 -56 -83 -63 -99 -63 -142 0 -49 33 -139 51 -139 5 0 9 33
9 73 1 49 6 83 19 105 l17 34 26 -39 c50 -74 157 -163 197 -163 9 0 -2 12 -24
26 -55 37 -65 48 -36 39 14 -4 46 -7 72 -6 27 0 51 -4 54 -9 4 -6 8 -34 10
-63 2 -29 4 -56 4 -62 1 -5 7 1 14 15 9 17 23 27 47 30 73 11 103 138 60 252
-11 28 -19 52 -17 52 40 11 77 72 77 129 0 107 -85 169 -176 128z m55 5 c-2
-2 -15 -9 -29 -15 -24 -11 -24 -11 -6 3 16 13 49 24 35 12z"/>
<path d="M4610 6021 c0 -10 197 -900 210 -952 13 -48 75 -118 124 -140 38 -17
75 -19 461 -19 399 0 422 1 452 20 38 23 63 67 63 111 0 18 -47 246 -105 506
-58 261 -105 476 -105 478 0 3 -247 5 -550 5 -313 0 -550 -4 -550 -9z m659
-298 c5 -21 15 -66 22 -100 l13 -63 117 0 116 0 12 -42 c25 -95 78 -344 74
-351 -3 -4 -92 -7 -198 -7 l-193 1 -17 77 c-9 42 -21 94 -26 115 l-10 37 -102
0 -103 0 -11 53 c-47 215 -63 293 -63 304 0 10 39 13 180 13 l179 0 10 -37z"/>
<path d="M5326 5473 c20 -86 22 -83 -52 -83 -64 0 -66 -1 -60 -23 3 -12 10
-47 17 -77 6 -30 15 -59 19 -63 4 -5 21 9 36 30 16 21 71 91 122 156 l92 117
-94 0 -94 0 14 -57z"/>
<path d="M5401 5355 c-67 -86 -120 -159 -118 -161 2 -3 73 -3 158 -2 l154 3
-36 159 -35 158 -123 -157z"/>
<path d="M6325 5685 c-105 -24 -175 -55 -221 -99 -37 -36 -44 -48 -44 -82 1
-84 72 -239 142 -306 34 -33 45 -38 86 -38 55 0 109 29 117 62 2 13 6 46 7 73
l3 50 40 1 c48 0 58 15 75 113 6 36 18 80 26 98 17 37 18 58 4 84 -26 47 -133
68 -235 44z"/>
<path d="M16556 5567 c3 -10 9 -15 12 -12 3 3 0 11 -7 18 -10 9 -11 8 -5 -6z"/>
<path d="M16279 5493 c-8 -10 -9 -14 -2 -10 17 10 28 -13 12 -24 -9 -6 -10 -9
-2 -9 18 0 26 19 14 34 -6 7 -8 16 -4 19 3 4 4 7 1 7 -3 0 -12 -8 -19 -17z"/>
<path d="M16305 5439 c-4 -6 -5 -12 -2 -15 2 -3 7 2 10 11 7 17 1 20 -8 4z"/>
<path d="M16343 5370 c0 -23 3 -28 9 -16 5 9 5 23 0 32 -6 12 -9 7 -9 -16z"/>
<path d="M16370 5331 c0 -6 4 -13 10 -16 6 -3 7 1 4 9 -7 18 -14 21 -14 7z"/>
<path d="M16435 4851 c-3 -5 -2 -12 3 -15 5 -3 9 1 9 9 0 17 -3 19 -12 6z"/>
<path d="M16416 4768 c3 -5 10 -6 15 -3 13 9 11 12 -6 12 -8 0 -12 -4 -9 -9z"/>
<path d="M16319 4683 c-13 -16 -12 -17 4 -4 16 13 21 21 13 21 -2 0 -10 -8
-17 -17z"/>
<path d="M16398 4473 c6 -2 18 -2 25 0 6 3 1 5 -13 5 -14 0 -19 -2 -12 -5z"/>
<path d="M16248 4403 c6 -2 18 -2 25 0 6 3 1 5 -13 5 -14 0 -19 -2 -12 -5z"/>
<path d="M16232 4310 c0 -14 2 -19 5 -12 2 6 2 18 0 25 -3 6 -5 1 -5 -13z"/>
<path d="M16242 4220 c0 -14 2 -19 5 -12 2 6 2 18 0 25 -3 6 -5 1 -5 -13z"/>
<path d="M6928 4004 c-106 -53 -196 -88 -304 -117 l-81 -22 -168 -195 c-234
-271 -306 -351 -314 -346 -12 8 -13 -105 -1 -119 7 -8 8 -20 4 -26 -4 -7 -3
-9 3 -6 11 7 47 -26 38 -34 -13 -13 114 -2 132 11 12 8 101 107 199 220 97
113 202 234 234 270 31 36 79 91 106 122 27 32 90 104 140 160 82 94 110 129
102 127 -2 0 -42 -20 -90 -45z"/>
<path d="M16436 3995 c-3 -9 -6 -28 -6 -42 0 -24 -2 -25 -37 -18 -21 4 -42 7
-48 8 -34 6 -30 -524 6 -778 42 -298 31 -472 -58 -931 l-37 -192 -58 -65 c-53
-59 -64 -67 -114 -77 -53 -11 -94 -38 -94 -60 0 -6 73 -10 200 -10 l200 0 0
33 c0 17 -7 53 -17 79 l-16 47 52 88 c123 209 217 420 263 593 16 59 22 121
27 290 8 257 18 290 51 169 12 -46 87 -320 166 -608 l145 -524 -27 -39 c-22
-31 -38 -41 -83 -54 -67 -19 -101 -39 -101 -59 0 -13 30 -15 201 -15 l202 0
-6 48 c-3 26 -18 69 -33 96 l-27 49 17 106 c10 59 21 183 23 281 6 198 -6 293
-56 446 -55 170 -63 235 -51 449 13 240 30 678 26 682 -1 2 -21 -6 -43 -16
-112 -55 -326 -82 -516 -66 l-88 7 -28 50 c-21 37 -30 45 -35 33z"/>
<path d="M6009 3433 c11 -4 11 -7 2 -13 -7 -4 0 -7 18 -6 34 1 29 12 -9 19
-14 2 -19 2 -11 0z"/>
<path d="M5931 3384 c0 -11 3 -14 6 -6 3 7 2 16 -1 19 -3 4 -6 -2 -5 -13z"/>
<path d="M6061 3364 c0 -11 3 -14 6 -6 3 7 2 16 -1 19 -3 4 -6 -2 -5 -13z"/>
<path d="M5967 3341 c-4 -17 -3 -21 5 -13 5 5 8 16 6 23 -3 8 -7 3 -11 -10z"/>
<path d="M5923 3240 c0 -25 2 -35 4 -22 2 12 2 32 0 45 -2 12 -4 2 -4 -23z"/>
<path d="M5911 3134 c0 -11 3 -14 6 -6 3 7 2 16 -1 19 -3 4 -6 -2 -5 -13z"/>
<path d="M6087 3119 c7 -7 15 -10 18 -7 3 3 -2 9 -12 12 -14 6 -15 5 -6 -5z"/>
<path d="M5902 3035 c0 -16 2 -22 5 -12 2 9 2 23 0 30 -3 6 -5 -1 -5 -18z"/>
<path d="M5891 2964 c0 -11 3 -14 6 -6 3 7 2 16 -1 19 -3 4 -6 -2 -5 -13z"/>
<path d="M5886 2915 c-3 -9 -6 -24 -5 -33 0 -9 5 -4 10 12 9 32 6 48 -5 21z"/>
<path d="M5871 2814 c0 -11 3 -14 6 -6 3 7 2 16 -1 19 -3 4 -6 -2 -5 -13z"/>
<path d="M5863 2765 c-3 -9 -3 -19 1 -22 3 -4 6 1 6 11 0 10 5 14 12 10 7 -4
8 -3 4 4 -10 16 -15 15 -23 -3z"/>
<path d="M5841 2644 c0 -11 3 -14 6 -6 3 7 2 16 -1 19 -3 4 -6 -2 -5 -13z"/>
<path d="M6181 2544 c0 -11 3 -14 6 -6 3 7 2 16 -1 19 -3 4 -6 -2 -5 -13z"/>
<path d="M5806 2503 c-6 -14 -5 -15 5 -6 7 7 10 15 7 18 -3 3 -9 -2 -12 -12z"/>
<path d="M6171 2424 c0 -11 3 -14 6 -6 3 7 2 16 -1 19 -3 4 -6 -2 -5 -13z"/>
<path d="M5771 2394 c0 -11 3 -14 6 -6 3 7 2 16 -1 19 -3 4 -6 -2 -5 -13z"/>
<path d="M6197 2403 c-4 -3 -7 -11 -7 -17 0 -6 5 -5 12 2 6 6 9 14 7 17 -3 3
-9 2 -12 -2z"/>
<path d="M5746 2345 c-3 -9 -6 -22 -5 -28 0 -7 5 -1 10 12 5 13 8 26 5 28 -2
2 -6 -3 -10 -12z"/>
<path d="M6165 2319 c-4 -6 -5 -12 -2 -15 2 -3 7 2 10 11 7 17 1 20 -8 4z"/>
<path d="M6086 2263 c-6 -14 -5 -15 5 -6 7 7 10 15 7 18 -3 3 -9 -2 -12 -12z"/>
<path d="M5721 2254 c0 -11 3 -14 6 -6 3 7 2 16 -1 19 -3 4 -6 -2 -5 -13z"/>
<path d="M6106 2245 c-9 -26 -7 -32 5 -12 6 10 9 21 6 23 -2 3 -7 -2 -11 -11z"/>
<path d="M6125 2229 c-4 -6 -5 -12 -2 -15 2 -3 7 2 10 11 7 17 1 20 -8 4z"/>
<path d="M5710 2221 c0 -6 4 -13 10 -16 6 -3 7 1 4 9 -7 18 -14 21 -14 7z"/>
<path d="M6084 2190 c0 -9 6 -17 12 -17 7 0 10 7 6 15 -4 11 -1 13 9 7 8 -5
11 -4 6 0 -14 16 -33 13 -33 -5z"/>
<path d="M5726 2133 c-6 -14 -5 -15 5 -6 7 7 10 15 7 18 -3 3 -9 -2 -12 -12z"/>
<path d="M6055 2119 c-4 -6 -5 -12 -2 -15 2 -3 7 2 10 11 7 17 1 20 -8 4z"/>
<path d="M5681 2084 c0 -11 3 -14 6 -6 3 7 2 16 -1 19 -3 4 -6 -2 -5 -13z"/>
<path d="M5672 2030 c0 -14 2 -19 5 -12 2 6 2 18 0 25 -3 6 -5 1 -5 -13z"/>
<path d="M5996 1935 c-9 -26 -7 -32 5 -12 6 10 9 21 6 23 -2 3 -7 -2 -11 -11z"/>
<path d="M5651 1864 c0 -11 3 -14 6 -6 3 7 2 16 -1 19 -3 4 -6 -2 -5 -13z"/>
<path d="M5955 1829 c-4 -6 -5 -12 -2 -15 2 -3 7 2 10 11 7 17 1 20 -8 4z"/>
<path d="M5931 1814 c0 -11 3 -14 6 -6 3 7 2 16 -1 19 -3 4 -6 -2 -5 -13z"/>
<path d="M5642 1795 c0 -16 2 -22 5 -12 2 9 2 23 0 30 -3 6 -5 -1 -5 -18z"/>
<path d="M5632 1705 c0 -16 2 -22 5 -12 2 9 2 23 0 30 -3 6 -5 -1 -5 -18z"/>
<path d="M5861 1684 c0 -11 3 -14 6 -6 3 7 2 16 -1 19 -3 4 -6 -2 -5 -13z"/>
<path d="M5871 1640 c0 -8 4 -24 9 -35 5 -13 9 -14 9 -5 0 8 -4 24 -9 35 -5
13 -9 14 -9 5z"/>
<path d="M5850 1604 c0 -6 7 -19 16 -30 14 -18 14 -18 3 6 -14 31 -19 36 -19
24z"/>
<path d="M5622 1570 c0 -14 2 -19 5 -12 2 6 2 18 0 25 -3 6 -5 1 -5 -13z"/>
<path d="M5631 1504 c0 -11 3 -14 6 -6 3 7 2 16 -1 19 -3 4 -6 -2 -5 -13z"/>
<path d="M5613 1475 c0 -22 2 -30 4 -17 2 12 2 30 0 40 -3 9 -5 -1 -4 -23z"/>
<path d="M5846 1493 c-6 -14 -5 -15 5 -6 7 7 10 15 7 18 -3 3 -9 -2 -12 -12z"/>
<path d="M5831 1414 c0 -11 3 -14 6 -6 3 7 2 16 -1 19 -3 4 -6 -2 -5 -13z"/>
<path d="M5612 1390 c0 -19 2 -27 5 -17 2 9 2 25 0 35 -3 9 -5 1 -5 -18z"/>
<path d="M5652 1340 c0 -14 2 -19 5 -12 2 6 2 18 0 25 -3 6 -5 1 -5 -13z"/>
<path d="M5594 1254 c-3 -30 -4 -77 -2 -105 l5 -49 -2286 -2 c-2278 -3 -2286
-3 -2286 -23 0 -20 7 -20 8975 -20 8968 0 8975 0 8975 20 0 20 -8 20 -6099 23
-6085 2 -6099 2 -6113 22 -8 11 -34 25 -59 31 -24 6 -63 26 -87 43 -39 28 -49
31 -122 32 -44 0 -93 4 -109 9 l-29 8 7 -49 c4 -27 10 -59 13 -71 l5 -23 -164
0 c-159 0 -164 1 -173 22 -7 16 -33 31 -84 50 -41 15 -93 41 -117 58 -36 26
-51 30 -103 30 -34 0 -61 4 -61 9 0 5 -9 7 -19 4 -11 -3 -28 4 -39 15 l-21 21
-7 -55z"/>
<path d="M5634 1295 c11 -8 22 -12 25 -9 6 6 -19 24 -34 24 -5 -1 -1 -7 9 -15z"/>
<path d="M5786 1294 c-8 -21 -8 -24 4 -24 6 0 9 3 9 8 -3 19 2 25 11 12 8 -13
10 -12 10 3 0 21 -26 23 -34 1z"/>
<path d="M5755 1290 c3 -5 8 -10 11 -10 2 0 4 5 4 10 0 6 -5 10 -11 10 -5 0
-7 -4 -4 -10z"/>
<path d="M5718 1273 c7 -3 16 -2 19 1 4 3 -2 6 -13 5 -11 0 -14 -3 -6 -6z"/>
</g>
</svg>
